<mxfile host="app.diagrams.net" agent="Mozilla/5.0 (Windows NT 10.0; Win64; x64) AppleWebKit/537.36 (KHTML, like Gecko) Chrome/140.0.0.0 Safari/537.36" version="28.2.1">
  <diagram name="第 1 页" id="FXfJd7JEdp-RcUfVdfrw">
    <mxGraphModel dx="1188" dy="676" grid="1" gridSize="10" guides="1" tooltips="1" connect="1" arrows="1" fold="1" page="1" pageScale="1" pageWidth="827" pageHeight="1169" background="none" math="0" shadow="0">
      <root>
        <mxCell id="0" />
        <mxCell id="1" parent="0" />
        <mxCell id="b6epYZV35I6o6WwRoxo6-5" style="edgeStyle=orthogonalEdgeStyle;rounded=0;orthogonalLoop=1;jettySize=auto;html=1;exitX=1;exitY=0.5;exitDx=0;exitDy=0;entryX=0;entryY=0.5;entryDx=0;entryDy=0;" parent="1" source="b6epYZV35I6o6WwRoxo6-1" target="b6epYZV35I6o6WwRoxo6-2" edge="1">
          <mxGeometry relative="1" as="geometry" />
        </mxCell>
        <mxCell id="b6epYZV35I6o6WwRoxo6-6" style="edgeStyle=orthogonalEdgeStyle;rounded=0;orthogonalLoop=1;jettySize=auto;html=1;exitX=1;exitY=0.5;exitDx=0;exitDy=0;entryX=0;entryY=0.5;entryDx=0;entryDy=0;" parent="1" source="b6epYZV35I6o6WwRoxo6-1" target="b6epYZV35I6o6WwRoxo6-4" edge="1">
          <mxGeometry relative="1" as="geometry" />
        </mxCell>
        <mxCell id="b6epYZV35I6o6WwRoxo6-7" style="edgeStyle=orthogonalEdgeStyle;rounded=0;orthogonalLoop=1;jettySize=auto;html=1;exitX=1;exitY=0.5;exitDx=0;exitDy=0;entryX=0;entryY=0.5;entryDx=0;entryDy=0;" parent="1" source="b6epYZV35I6o6WwRoxo6-1" target="b6epYZV35I6o6WwRoxo6-3" edge="1">
          <mxGeometry relative="1" as="geometry" />
        </mxCell>
        <mxCell id="b6epYZV35I6o6WwRoxo6-1" value="Make初始化" style="rounded=0;whiteSpace=wrap;html=1;" parent="1" vertex="1">
          <mxGeometry x="260" y="380" width="120" height="60" as="geometry" />
        </mxCell>
        <mxCell id="b6epYZV35I6o6WwRoxo6-11" style="edgeStyle=orthogonalEdgeStyle;rounded=0;orthogonalLoop=1;jettySize=auto;html=1;exitX=1;exitY=0.5;exitDx=0;exitDy=0;" parent="1" source="b6epYZV35I6o6WwRoxo6-2" target="b6epYZV35I6o6WwRoxo6-8" edge="1">
          <mxGeometry relative="1" as="geometry" />
        </mxCell>
        <mxCell id="b6epYZV35I6o6WwRoxo6-2" value="replicator协程" style="rounded=0;whiteSpace=wrap;html=1;strokeColor=light-dark(#000000,#CC0000);fontStyle=1" parent="1" vertex="1">
          <mxGeometry x="450" y="160" width="120" height="60" as="geometry" />
        </mxCell>
        <mxCell id="sAiUTFlmpk7JvvEyV8vf-3" style="edgeStyle=orthogonalEdgeStyle;rounded=0;orthogonalLoop=1;jettySize=auto;html=1;exitX=1;exitY=0.5;exitDx=0;exitDy=0;entryX=0;entryY=0.5;entryDx=0;entryDy=0;" parent="1" source="b6epYZV35I6o6WwRoxo6-3" target="sAiUTFlmpk7JvvEyV8vf-1" edge="1">
          <mxGeometry relative="1" as="geometry" />
        </mxCell>
        <mxCell id="sAiUTFlmpk7JvvEyV8vf-4" style="edgeStyle=orthogonalEdgeStyle;rounded=0;orthogonalLoop=1;jettySize=auto;html=1;exitX=1;exitY=0.5;exitDx=0;exitDy=0;" parent="1" source="b6epYZV35I6o6WwRoxo6-3" target="sAiUTFlmpk7JvvEyV8vf-2" edge="1">
          <mxGeometry relative="1" as="geometry" />
        </mxCell>
        <mxCell id="b6epYZV35I6o6WwRoxo6-3" value="ticker协程" style="rounded=0;whiteSpace=wrap;html=1;fontStyle=1" parent="1" vertex="1">
          <mxGeometry x="450" y="470" width="120" height="60" as="geometry" />
        </mxCell>
        <mxCell id="sAiUTFlmpk7JvvEyV8vf-10" value="" style="edgeStyle=orthogonalEdgeStyle;rounded=0;orthogonalLoop=1;jettySize=auto;html=1;" parent="1" source="b6epYZV35I6o6WwRoxo6-4" target="sAiUTFlmpk7JvvEyV8vf-9" edge="1">
          <mxGeometry relative="1" as="geometry" />
        </mxCell>
        <mxCell id="b6epYZV35I6o6WwRoxo6-4" value="applier协程" style="rounded=0;whiteSpace=wrap;html=1;strokeColor=light-dark(#000000,#CC0000);fontStyle=1" parent="1" vertex="1">
          <mxGeometry x="450" y="620" width="120" height="60" as="geometry" />
        </mxCell>
        <mxCell id="b6epYZV35I6o6WwRoxo6-12" style="edgeStyle=orthogonalEdgeStyle;rounded=0;orthogonalLoop=1;jettySize=auto;html=1;exitX=1;exitY=0.5;exitDx=0;exitDy=0;entryX=0;entryY=0.5;entryDx=0;entryDy=0;" parent="1" source="b6epYZV35I6o6WwRoxo6-8" target="b6epYZV35I6o6WwRoxo6-9" edge="1">
          <mxGeometry relative="1" as="geometry" />
        </mxCell>
        <mxCell id="b6epYZV35I6o6WwRoxo6-13" style="edgeStyle=orthogonalEdgeStyle;rounded=0;orthogonalLoop=1;jettySize=auto;html=1;exitX=1;exitY=0.5;exitDx=0;exitDy=0;entryX=0;entryY=0.5;entryDx=0;entryDy=0;" parent="1" source="b6epYZV35I6o6WwRoxo6-8" target="b6epYZV35I6o6WwRoxo6-10" edge="1">
          <mxGeometry relative="1" as="geometry" />
        </mxCell>
        <mxCell id="b6epYZV35I6o6WwRoxo6-8" value="replicateOneRound&lt;br&gt;单轮日志复制" style="rounded=0;whiteSpace=wrap;html=1;strokeColor=light-dark(#000000,#CC0000);" parent="1" vertex="1">
          <mxGeometry x="610" y="161" width="120" height="60" as="geometry" />
        </mxCell>
        <mxCell id="b6epYZV35I6o6WwRoxo6-17" value="" style="edgeStyle=orthogonalEdgeStyle;rounded=0;orthogonalLoop=1;jettySize=auto;html=1;" parent="1" source="b6epYZV35I6o6WwRoxo6-9" target="b6epYZV35I6o6WwRoxo6-16" edge="1">
          <mxGeometry relative="1" as="geometry" />
        </mxCell>
        <mxCell id="b6epYZV35I6o6WwRoxo6-18" value="" style="edgeStyle=orthogonalEdgeStyle;rounded=0;orthogonalLoop=1;jettySize=auto;html=1;" parent="1" source="b6epYZV35I6o6WwRoxo6-9" target="b6epYZV35I6o6WwRoxo6-16" edge="1">
          <mxGeometry relative="1" as="geometry" />
        </mxCell>
        <mxCell id="b6epYZV35I6o6WwRoxo6-19" value="" style="edgeStyle=orthogonalEdgeStyle;rounded=0;orthogonalLoop=1;jettySize=auto;html=1;" parent="1" source="b6epYZV35I6o6WwRoxo6-9" target="b6epYZV35I6o6WwRoxo6-16" edge="1">
          <mxGeometry relative="1" as="geometry" />
        </mxCell>
        <mxCell id="b6epYZV35I6o6WwRoxo6-21" style="edgeStyle=orthogonalEdgeStyle;rounded=0;orthogonalLoop=1;jettySize=auto;html=1;exitX=1;exitY=0.5;exitDx=0;exitDy=0;entryX=0;entryY=0.5;entryDx=0;entryDy=0;" parent="1" source="b6epYZV35I6o6WwRoxo6-9" target="b6epYZV35I6o6WwRoxo6-20" edge="1">
          <mxGeometry relative="1" as="geometry" />
        </mxCell>
        <mxCell id="b6epYZV35I6o6WwRoxo6-9" value="发送快照" style="rounded=0;whiteSpace=wrap;html=1;strokeColor=light-dark(#000000,#CC0000);" parent="1" vertex="1">
          <mxGeometry x="780" y="80" width="120" height="60" as="geometry" />
        </mxCell>
        <mxCell id="b6epYZV35I6o6WwRoxo6-25" value="" style="edgeStyle=orthogonalEdgeStyle;rounded=0;orthogonalLoop=1;jettySize=auto;html=1;" parent="1" source="b6epYZV35I6o6WwRoxo6-10" target="b6epYZV35I6o6WwRoxo6-24" edge="1">
          <mxGeometry relative="1" as="geometry" />
        </mxCell>
        <mxCell id="b6epYZV35I6o6WwRoxo6-26" value="" style="edgeStyle=orthogonalEdgeStyle;rounded=0;orthogonalLoop=1;jettySize=auto;html=1;" parent="1" source="b6epYZV35I6o6WwRoxo6-10" target="b6epYZV35I6o6WwRoxo6-24" edge="1">
          <mxGeometry relative="1" as="geometry" />
        </mxCell>
        <mxCell id="b6epYZV35I6o6WwRoxo6-10" value="发送日志条目" style="rounded=0;whiteSpace=wrap;html=1;strokeColor=light-dark(#000000,#CC0000);" parent="1" vertex="1">
          <mxGeometry x="780" y="240" width="120" height="60" as="geometry" />
        </mxCell>
        <mxCell id="b6epYZV35I6o6WwRoxo6-16" value="Raft.InstallSnapshot RPC" style="whiteSpace=wrap;html=1;rounded=0;strokeColor=light-dark(#FFFFFF,#0000FF);" parent="1" vertex="1">
          <mxGeometry x="970" y="40" width="180" height="60" as="geometry" />
        </mxCell>
        <mxCell id="b6epYZV35I6o6WwRoxo6-20" value="handleInstallSnapshotResponse&lt;br&gt;处理快照RPC响应" style="whiteSpace=wrap;html=1;rounded=0;strokeColor=light-dark(#000000,#CC0000);" parent="1" vertex="1">
          <mxGeometry x="970" y="120" width="180" height="60" as="geometry" />
        </mxCell>
        <mxCell id="b6epYZV35I6o6WwRoxo6-24" value="Raft.AppendEntries RPC" style="whiteSpace=wrap;html=1;rounded=0;strokeColor=light-dark(#FFFFFF,#0000FF);" parent="1" vertex="1">
          <mxGeometry x="970" y="200" width="180" height="60" as="geometry" />
        </mxCell>
        <mxCell id="sAiUTFlmpk7JvvEyV8vf-25" style="edgeStyle=orthogonalEdgeStyle;rounded=0;orthogonalLoop=1;jettySize=auto;html=1;exitX=0.5;exitY=1;exitDx=0;exitDy=0;entryX=0.5;entryY=0;entryDx=0;entryDy=0;" parent="1" source="b6epYZV35I6o6WwRoxo6-27" target="b6epYZV35I6o6WwRoxo6-4" edge="1">
          <mxGeometry relative="1" as="geometry">
            <Array as="points">
              <mxPoint x="1060" y="360" />
              <mxPoint x="510" y="360" />
            </Array>
          </mxGeometry>
        </mxCell>
        <mxCell id="sAiUTFlmpk7JvvEyV8vf-26" style="edgeStyle=orthogonalEdgeStyle;rounded=0;orthogonalLoop=1;jettySize=auto;html=1;exitX=0.5;exitY=1;exitDx=0;exitDy=0;entryX=0.75;entryY=0;entryDx=0;entryDy=0;" parent="1" source="b6epYZV35I6o6WwRoxo6-27" target="b6epYZV35I6o6WwRoxo6-3" edge="1">
          <mxGeometry relative="1" as="geometry">
            <Array as="points">
              <mxPoint x="1060" y="360" />
              <mxPoint x="540" y="360" />
            </Array>
          </mxGeometry>
        </mxCell>
        <mxCell id="b6epYZV35I6o6WwRoxo6-27" value="handleAppendEntriesResponse&lt;div&gt;处理追加日志RPC响应&lt;/div&gt;" style="rounded=0;whiteSpace=wrap;html=1;strokeColor=light-dark(#000000,#CC0000);" parent="1" vertex="1">
          <mxGeometry x="970" y="280" width="180" height="60" as="geometry" />
        </mxCell>
        <mxCell id="b6epYZV35I6o6WwRoxo6-28" style="edgeStyle=orthogonalEdgeStyle;rounded=0;orthogonalLoop=1;jettySize=auto;html=1;exitX=1;exitY=0.5;exitDx=0;exitDy=0;entryX=-0.016;entryY=0.5;entryDx=0;entryDy=0;entryPerimeter=0;" parent="1" source="b6epYZV35I6o6WwRoxo6-10" target="b6epYZV35I6o6WwRoxo6-27" edge="1">
          <mxGeometry relative="1" as="geometry" />
        </mxCell>
        <mxCell id="sAiUTFlmpk7JvvEyV8vf-6" value="" style="edgeStyle=orthogonalEdgeStyle;rounded=0;orthogonalLoop=1;jettySize=auto;html=1;" parent="1" source="sAiUTFlmpk7JvvEyV8vf-1" target="sAiUTFlmpk7JvvEyV8vf-5" edge="1">
          <mxGeometry relative="1" as="geometry" />
        </mxCell>
        <mxCell id="sAiUTFlmpk7JvvEyV8vf-1" value="选举超时" style="rounded=0;whiteSpace=wrap;html=1;strokeColor=light-dark(#FFFFFF,#0000FF);" parent="1" vertex="1">
          <mxGeometry x="610" y="430" width="120" height="60" as="geometry" />
        </mxCell>
        <mxCell id="sAiUTFlmpk7JvvEyV8vf-8" value="" style="edgeStyle=orthogonalEdgeStyle;rounded=0;orthogonalLoop=1;jettySize=auto;html=1;" parent="1" source="sAiUTFlmpk7JvvEyV8vf-2" target="sAiUTFlmpk7JvvEyV8vf-7" edge="1">
          <mxGeometry relative="1" as="geometry" />
        </mxCell>
        <mxCell id="sAiUTFlmpk7JvvEyV8vf-2" value="心跳超时" style="rounded=0;whiteSpace=wrap;html=1;strokeColor=light-dark(#000000,#CC0000);" parent="1" vertex="1">
          <mxGeometry x="610" y="530" width="120" height="60" as="geometry" />
        </mxCell>
        <mxCell id="sAiUTFlmpk7JvvEyV8vf-12" style="edgeStyle=orthogonalEdgeStyle;rounded=0;orthogonalLoop=1;jettySize=auto;html=1;" parent="1" source="sAiUTFlmpk7JvvEyV8vf-5" target="sAiUTFlmpk7JvvEyV8vf-7" edge="1">
          <mxGeometry relative="1" as="geometry" />
        </mxCell>
        <mxCell id="sAiUTFlmpk7JvvEyV8vf-13" value="选举为领导者" style="edgeLabel;html=1;align=center;verticalAlign=middle;resizable=0;points=[];" parent="sAiUTFlmpk7JvvEyV8vf-12" vertex="1" connectable="0">
          <mxGeometry x="-0.1914" relative="1" as="geometry">
            <mxPoint as="offset" />
          </mxGeometry>
        </mxCell>
        <mxCell id="sAiUTFlmpk7JvvEyV8vf-18" style="edgeStyle=orthogonalEdgeStyle;rounded=0;orthogonalLoop=1;jettySize=auto;html=1;exitX=1;exitY=0.5;exitDx=0;exitDy=0;entryX=0;entryY=0.5;entryDx=0;entryDy=0;" parent="1" source="sAiUTFlmpk7JvvEyV8vf-5" target="sAiUTFlmpk7JvvEyV8vf-16" edge="1">
          <mxGeometry relative="1" as="geometry" />
        </mxCell>
        <mxCell id="sAiUTFlmpk7JvvEyV8vf-19" style="edgeStyle=orthogonalEdgeStyle;rounded=0;orthogonalLoop=1;jettySize=auto;html=1;exitX=1;exitY=0.5;exitDx=0;exitDy=0;entryX=0;entryY=0.5;entryDx=0;entryDy=0;" parent="1" source="sAiUTFlmpk7JvvEyV8vf-5" target="sAiUTFlmpk7JvvEyV8vf-17" edge="1">
          <mxGeometry relative="1" as="geometry" />
        </mxCell>
        <mxCell id="sAiUTFlmpk7JvvEyV8vf-20" value="选举失败" style="edgeLabel;html=1;align=center;verticalAlign=middle;resizable=0;points=[];" parent="sAiUTFlmpk7JvvEyV8vf-19" vertex="1" connectable="0">
          <mxGeometry x="-0.4638" y="1" relative="1" as="geometry">
            <mxPoint as="offset" />
          </mxGeometry>
        </mxCell>
        <mxCell id="sAiUTFlmpk7JvvEyV8vf-5" value="StartElection&lt;div&gt;发起选举&lt;/div&gt;" style="whiteSpace=wrap;html=1;rounded=0;fillStyle=auto;shadow=0;glass=0;strokeColor=light-dark(#FFFFFF,#0000FF);fontStyle=1" parent="1" vertex="1">
          <mxGeometry x="780" y="430" width="120" height="60" as="geometry" />
        </mxCell>
        <mxCell id="sAiUTFlmpk7JvvEyV8vf-22" style="edgeStyle=orthogonalEdgeStyle;rounded=0;orthogonalLoop=1;jettySize=auto;html=1;exitX=0;exitY=0;exitDx=0;exitDy=0;entryX=0.5;entryY=1;entryDx=0;entryDy=0;" parent="1" source="sAiUTFlmpk7JvvEyV8vf-7" target="b6epYZV35I6o6WwRoxo6-8" edge="1">
          <mxGeometry relative="1" as="geometry">
            <Array as="points">
              <mxPoint x="750" y="530" />
              <mxPoint x="750" y="375" />
              <mxPoint x="670" y="375" />
            </Array>
          </mxGeometry>
        </mxCell>
        <mxCell id="sAiUTFlmpk7JvvEyV8vf-7" value="BroadcastHeartbeat&lt;div&gt;广播心跳&lt;/div&gt;" style="whiteSpace=wrap;html=1;rounded=0;strokeColor=light-dark(#000000,#CC0000);fontStyle=1" parent="1" vertex="1">
          <mxGeometry x="780" y="530" width="120" height="60" as="geometry" />
        </mxCell>
        <mxCell id="sAiUTFlmpk7JvvEyV8vf-9" value="管道发送ApplyMsg" style="whiteSpace=wrap;html=1;rounded=0;strokeColor=light-dark(#000000,#CC0000);" parent="1" vertex="1">
          <mxGeometry x="610" y="620" width="120" height="60" as="geometry" />
        </mxCell>
        <mxCell id="sAiUTFlmpk7JvvEyV8vf-16" value="更新角色（跟随者）和任期" style="rounded=0;whiteSpace=wrap;html=1;" parent="1" vertex="1">
          <mxGeometry x="990" y="390" width="120" height="60" as="geometry" />
        </mxCell>
        <mxCell id="sAiUTFlmpk7JvvEyV8vf-17" value="任期未更新，保持为候选者重新发起选举" style="rounded=0;whiteSpace=wrap;html=1;" parent="1" vertex="1">
          <mxGeometry x="990" y="460" width="120" height="60" as="geometry" />
        </mxCell>
        <mxCell id="sAiUTFlmpk7JvvEyV8vf-24" value="日志复制规则" style="shape=process;whiteSpace=wrap;html=1;backgroundOutline=1;" parent="1" vertex="1">
          <mxGeometry x="1181" y="200" width="120" height="60" as="geometry" />
        </mxCell>
        <mxCell id="sAiUTFlmpk7JvvEyV8vf-27" value="发现更高任期响应失败" style="text;html=1;align=center;verticalAlign=middle;resizable=0;points=[];autosize=1;strokeColor=none;fillColor=none;" parent="1" vertex="1">
          <mxGeometry x="520" y="395" width="140" height="30" as="geometry" />
        </mxCell>
        <mxCell id="sAiUTFlmpk7JvvEyV8vf-28" value="大多数响应成功应用日志" style="text;html=1;align=center;verticalAlign=middle;resizable=0;points=[];autosize=1;strokeColor=none;fillColor=none;" parent="1" vertex="1">
          <mxGeometry x="420" y="365" width="160" height="30" as="geometry" />
        </mxCell>
        <mxCell id="sAiUTFlmpk7JvvEyV8vf-29" value="投票选举规则" style="shape=process;whiteSpace=wrap;html=1;backgroundOutline=1;" parent="1" vertex="1">
          <mxGeometry x="1121" y="425" width="120" height="60" as="geometry" />
        </mxCell>
        <mxCell id="FbvaixAFGYrQ1IHtrjBl-24" value="&lt;span style=&quot;color: rgb(18, 18, 18);&quot;&gt;后面结合具体业务才会用到&lt;/span&gt;" style="shape=process;whiteSpace=wrap;html=1;backgroundOutline=1;" vertex="1" parent="1">
          <mxGeometry x="770" y="620" width="120" height="60" as="geometry" />
        </mxCell>
      </root>
    </mxGraphModel>
  </diagram>
</mxfile>
